<?xml version='1.0' encoding='utf-8'?>
<svg xmlns="http://www.w3.org/2000/svg" enable-background="new 0 0 1000 1000" version="1.1" viewBox="0 0 1e3 1e3"> <style type="text/css">.st0{fill:#D49E2F;} .st1{fill:#FFFFFF;stroke:#1D1D1B;stroke-miterlimit:10;} .st2{fill:url(#SVGID_1_);stroke:#FFFFFF;stroke-miterlimit:10;} .st3{fill:url(#SVGID_2_);stroke:#FFFFFF;stroke-miterlimit:10;} .st4{fill:none;stroke:#1D1D1B;stroke-miterlimit:10;} .st5{fill:none;stroke:#FFFFFF;stroke-miterlimit:10;} .st6{fill:url(#SVGID_3_);stroke:#FFFFFF;stroke-miterlimit:10;} .st7{fill:url(#SVGID_4_);stroke:#FFFFFF;stroke-miterlimit:10;} .st8{fill:url(#SVGID_5_);stroke:#FFFFFF;stroke-miterlimit:10;} .st9{fill:url(#SVGID_6_);stroke:#FFFFFF;stroke-miterlimit:10;} .st10{fill:url(#SVGID_7_);stroke:#FFFFFF;stroke-miterlimit:10;} .st11{fill:url(#SVGID_8_);stroke:#FFFFFF;stroke-miterlimit:10;} .st12{fill:url(#SVGID_9_);stroke:#FFFFFF;stroke-miterlimit:10;} .st13{fill:url(#SVGID_10_);stroke:#FFFFFF;stroke-miterlimit:10;} .st14{fill:url(#SVGID_11_);stroke:#FFFFFF;stroke-miterlimit:10;} .st15{fill:url(#SVGID_12_);stroke:#FFFFFF;stroke-miterlimit:10;} .st16{fill:url(#SVGID_13_);stroke:#FFFFFF;stroke-miterlimit:10;} .st17{fill:url(#SVGID_14_);stroke:#FFFFFF;stroke-miterlimit:10;} .st18{fill:#E89D3A;stroke:#1D1D1B;stroke-miterlimit:10;} .st19{fill:#95C11F;stroke:#1D1D1B;stroke-miterlimit:10;} .st20{fill:none;stroke:#EAFFAD;stroke-miterlimit:10;} .st21{fill:none;stroke:#FFDE7C;stroke-miterlimit:10;} .st22{fill:none;stroke:#070500;stroke-miterlimit:10;} .st23{fill:#EDD62B;stroke:#070500;stroke-miterlimit:10;} .st24{fill:#C48F31;stroke:#070500;stroke-miterlimit:10;} .st25{fill:#0D754D;stroke:#1D1D1B;stroke-miterlimit:10;} .st26{fill:#634E42;stroke:#1D1D1B;stroke-miterlimit:10;} .st27{fill:#7B6A58;stroke:#1D1D1B;stroke-miterlimit:10;} .st28{fill:#666D4A;stroke:#1D1D1B;stroke-miterlimit:10;} .st29{fill:#B2C47C;stroke:#1D1D1B;stroke-miterlimit:10;} .st30{fill:#A48A7B;stroke:#1D1D1B;stroke-miterlimit:10;} .st31{fill:#75665F;stroke:#1D1D1B;stroke-miterlimit:10;} .st32{fill:url(#SVGID_15_);stroke:#FFFFFF;stroke-miterlimit:10;} .st33{fill:url(#SVGID_16_);stroke:#FFFFFF;stroke-miterlimit:10;} .st34{fill:url(#SVGID_17_);stroke:#FFFFFF;stroke-miterlimit:10;} .st35{fill:url(#SVGID_18_);stroke:#FFFFFF;stroke-miterlimit:10;} .st36{fill:url(#SVGID_19_);stroke:#FFFFFF;stroke-miterlimit:10;} .st37{fill:url(#SVGID_20_);stroke:#FFFFFF;stroke-miterlimit:10;} .st38{fill:url(#SVGID_21_);stroke:#FFFFFF;stroke-miterlimit:10;} .st39{fill:url(#SVGID_22_);stroke:#FFFFFF;stroke-miterlimit:10;} .st40{fill:url(#SVGID_23_);stroke:#FFFFFF;stroke-miterlimit:10;} .st41{fill:url(#SVGID_24_);stroke:#FFFFFF;stroke-miterlimit:10;} .st42{fill:url(#SVGID_25_);stroke:#FFFFFF;stroke-miterlimit:10;} .st43{fill:url(#SVGID_26_);stroke:#FFFFFF;stroke-miterlimit:10;} .st44{fill:url(#SVGID_27_);stroke:#FFFFFF;stroke-miterlimit:10;} .st45{fill:url(#SVGID_28_);stroke:#FFFFFF;stroke-miterlimit:10;} .st46{fill:url(#SVGID_29_);stroke:#FFFFFF;stroke-miterlimit:10;} .st47{fill:url(#SVGID_30_);stroke:#FFFFFF;stroke-miterlimit:10;} .st48{fill:url(#SVGID_31_);stroke:#FFFFFF;stroke-miterlimit:10;} .st49{fill:url(#SVGID_32_);stroke:#FFFFFF;stroke-miterlimit:10;} .st50{fill:url(#SVGID_33_);stroke:#FFFFFF;stroke-miterlimit:10;} .st51{fill:url(#SVGID_34_);stroke:#FFFFFF;stroke-miterlimit:10;} .st52{fill:url(#SVGID_35_);stroke:#FFFFFF;stroke-miterlimit:10;} .st53{fill:url(#SVGID_36_);stroke:#FFFFFF;stroke-miterlimit:10;} .st54{fill:url(#SVGID_37_);stroke:#FFFFFF;stroke-miterlimit:10;} .st55{fill:url(#SVGID_38_);stroke:#FFFFFF;stroke-miterlimit:10;} .st56{fill:url(#SVGID_39_);stroke:#FFFFFF;stroke-miterlimit:10;} .st57{fill:url(#SVGID_40_);stroke:#FFFFFF;stroke-miterlimit:10;} .st58{fill:url(#SVGID_41_);stroke:#FFFFFF;stroke-miterlimit:10;} .st59{fill:url(#SVGID_42_);stroke:#FFFFFF;stroke-miterlimit:10;} .st60{fill:#0D754D;stroke:#1D1D1B;stroke-width:5;stroke-miterlimit:10;} .st61{fill:none;stroke:#1D1D1B;stroke-width:5;stroke-miterlimit:10;} .st62{fill:#634E42;stroke:#1D1D1B;stroke-width:5;stroke-miterlimit:10;} .st63{fill:#7B6A58;stroke:#1D1D1B;stroke-width:5;stroke-miterlimit:10;} .st64{fill:#666D4A;stroke:#1D1D1B;stroke-width:5;stroke-miterlimit:10;} .st65{fill:#B2C47C;stroke:#1D1D1B;stroke-width:5;stroke-miterlimit:10;} .st66{fill:#A48A7B;stroke:#1D1D1B;stroke-width:5;stroke-miterlimit:10;} .st67{fill:#75665F;stroke:#1D1D1B;stroke-width:5;stroke-miterlimit:10;} .st68{fill:none;stroke:#1D1D1B;stroke-width:5;stroke-linecap:round;stroke-miterlimit:10;} .st69{fill:url(#SVGID_43_);stroke:#FFFFFF;stroke-miterlimit:10;} .st70{fill:url(#SVGID_44_);stroke:#FFFFFF;stroke-miterlimit:10;} .st71{fill:url(#SVGID_45_);stroke:#FFFFFF;stroke-miterlimit:10;} .st72{fill:url(#SVGID_46_);stroke:#FFFFFF;stroke-miterlimit:10;} .st73{fill:url(#SVGID_47_);stroke:#FFFFFF;stroke-miterlimit:10;} .st74{fill:url(#SVGID_48_);stroke:#FFFFFF;stroke-miterlimit:10;} .st75{fill:url(#SVGID_49_);stroke:#FFFFFF;stroke-miterlimit:10;} .st76{fill:url(#SVGID_50_);stroke:#FFFFFF;stroke-miterlimit:10;} .st77{fill:url(#SVGID_51_);stroke:#FFFFFF;stroke-miterlimit:10;} .st78{fill:url(#SVGID_52_);stroke:#FFFFFF;stroke-miterlimit:10;} .st79{fill:url(#SVGID_53_);stroke:#FFFFFF;stroke-miterlimit:10;} .st80{fill:url(#SVGID_54_);stroke:#FFFFFF;stroke-miterlimit:10;} .st81{fill:url(#SVGID_55_);stroke:#FFFFFF;stroke-miterlimit:10;} .st82{fill:url(#SVGID_56_);stroke:#FFFFFF;stroke-miterlimit:10;}</style> <rect class="st0" x="-.98" y="-1.25" width="999.68" height="1000.5"/> <path class="st60" d="m553.57 535.62c0-26.35-6.41-52.27-16.74-76.41-10.66-24.9-27.57-46.99-40.2-71-5.32-10.11-10.65-20.24-15.09-30.77-9.27-22-14.49-45.39-18.74-68.8-3.72-20.53-5.58-42.79-12.35-62.57-4.58-13.39-10.65-25.52-20.03-36.26-16.36-18.75-37.88-28.93-61.91-33.61-4.17-0.81-8.45-0.85-12.69-0.87-9.7-0.05-19.62 0.01-28.78 3.2-17.1 5.94-37.29 25.95-46.83 40.83-8.75 13.65-13.41 29.06-14.58 45.17-1.64 22.42-4.58 49.44-11.52 70.75-7.09 21.78-21.48 40.26-30.23 61.31-10.54 25.36-21.82 48.67-33.57 73.37-12.84 26.99-20.16 55.67-20.16 85.67 0 105.87 85.83 191.7 191.7 191.7s191.72-85.84 191.72-191.71z"/> <path class="st61" d="m210.48 548.77c-1.02 0.77-1.25 2.29-0.8 3.49 0.46 1.2 1.46 2.1 2.54 2.79 1.16 0.74 2.48 1.29 3.85 1.25 2.91-0.07 5.31-3.17 4.76-6.03-0.54-2.86-3.75-4.86-6.59-4.22-1.69 0.38-3.13 1.53-4.18 2.91"/> <path class="st61" d="m254.28 533.32c0.36-0.03 0.74-0.09 1.02-0.33 0.73-0.61 0.29-1.77-0.11-2.64-1.12-2.46-1.39-5.3-0.75-7.92 0.24-0.98 0.6-1.93 0.66-2.93s-0.27-2.1-1.11-2.65c-0.59-0.38-1.33-0.43-2.04-0.46-1.66-0.06-3.46-0.02-4.8 0.98-1.86 1.38-2.13 4.03-2.14 6.35-0.02 5.21 3.56 10.09 9.27 9.6z"/> <path class="st61" d="m263.43 555.02c1.16 0.94 2.89 1.35 4.19 0.6s1.69-2.87 0.5-3.78c-0.82-0.63-1.98-0.5-2.99-0.28-1.03 0.22-2.16 0.58-2.67 1.5-0.52 0.92 0.2 2.42 1.22 2.18"/> <path class="st61" d="m238.54 626.55c-1.02 0.77-1.25 2.29-0.8 3.49s1.46 2.1 2.54 2.79c1.16 0.74 2.48 1.29 3.85 1.25 2.91-0.07 5.31-3.17 4.76-6.03-0.54-2.86-3.75-4.86-6.59-4.22-1.69 0.38-3.13 1.53-4.18 2.91"/> <path class="st62" d="m290.19 591.88c0.67-0.06 1.37-0.18 1.89-0.61 1.35-1.13 0.53-3.27-0.2-4.87-2.07-4.54-2.57-9.79-1.38-14.63 0.44-1.8 1.11-3.57 1.21-5.42s-0.5-3.89-2.05-4.9c-1.09-0.71-2.46-0.8-3.76-0.85-3.07-0.11-6.39-0.03-8.86 1.8-3.44 2.55-3.94 7.44-3.96 11.72-0.05 9.65 6.58 18.68 17.11 17.76z"/> <path class="st61" d="m307.09 631.97c2.15 1.74 5.34 2.5 7.73 1.11 2.4-1.39 3.12-5.29 0.92-6.97-1.52-1.16-3.65-0.92-5.52-0.52-1.9 0.41-3.98 1.07-4.94 2.77-0.95 1.7 0.36 4.48 2.26 4.03"/> <path class="st61" d="m387.84 474.9c-0.77 2.23 0.45 4.8 2.38 6.16s4.41 1.71 6.77 1.65c2.53-0.06 5.13-0.59 7.2-2.06 4.39-3.11 4.86-10.32 1.08-14.15-3.78-3.82-10.76-3.58-14.45 0.33-2.19 2.33-3.22 5.57-3.4 8.76"/> <path class="st61" d="m246.7 585.98c0.36-0.03 0.74-0.09 1.02-0.33 0.73-0.61 0.29-1.77-0.11-2.64-1.12-2.46-1.39-5.3-0.75-7.92 0.24-0.98 0.6-1.93 0.66-2.93s-0.27-2.1-1.11-2.65c-0.59-0.38-1.33-0.43-2.04-0.46-1.66-0.06-3.46-0.02-4.8 0.98-1.86 1.38-2.13 4.03-2.14 6.35-0.03 5.21 3.56 10.1 9.27 9.6z"/> <path class="st61" d="m255.85 607.69c1.16 0.94 2.89 1.35 4.19 0.6s1.69-2.87 0.5-3.78c-0.82-0.63-1.98-0.5-2.99-0.28-1.03 0.22-2.16 0.58-2.67 1.5-0.52 0.92 0.2 2.42 1.22 2.18"/> <path class="st61" d="m344.36 216.77c-1.02 0.77-1.25 2.29-0.8 3.49 0.46 1.2 1.46 2.1 2.54 2.79 1.16 0.74 2.48 1.29 3.85 1.25 2.91-0.07 5.31-3.17 4.76-6.03-0.54-2.86-3.75-4.86-6.59-4.22-1.69 0.38-3.13 1.53-4.18 2.91"/> <path class="st61" d="m388.16 201.32c0.36-0.03 0.74-0.09 1.02-0.33 0.73-0.61 0.29-1.77-0.11-2.64-1.12-2.46-1.39-5.3-0.75-7.92 0.24-0.98 0.6-1.93 0.66-2.93s-0.27-2.1-1.11-2.65c-0.59-0.38-1.33-0.43-2.04-0.46-1.66-0.06-3.46-0.02-4.8 0.98-1.86 1.38-2.13 4.03-2.14 6.35-0.02 5.2 3.57 10.09 9.27 9.6z"/> <path class="st61" d="m397.31 223.02c1.16 0.94 2.89 1.35 4.19 0.6s1.69-2.87 0.5-3.78c-0.82-0.63-1.98-0.5-2.99-0.28-1.03 0.22-2.16 0.58-2.67 1.5-0.52 0.92 0.2 2.42 1.22 2.18"/> <path class="st61" d="m388.75 502.93c-0.32 0.94 0.19 2.01 1 2.58s1.85 0.72 2.84 0.69c1.06-0.03 2.15-0.25 3.01-0.86 1.84-1.3 2.03-4.32 0.45-5.92s-4.51-1.5-6.05 0.14c-0.92 0.97-1.35 2.33-1.42 3.67"/> <path class="st61" d="m276.66 630.28c-1.26 0.95-1.54 2.82-0.98 4.29s1.8 2.59 3.13 3.43c1.42 0.91 3.06 1.58 4.74 1.54 3.58-0.08 6.53-3.89 5.86-7.42-0.67-3.52-4.61-5.98-8.11-5.2-2.08 0.47-3.85 1.88-5.14 3.57"/> <path class="st61" d="m283.54 643.31c-1.26 0.95-1.54 2.82-0.98 4.29s1.8 2.59 3.13 3.43c1.42 0.91 3.06 1.58 4.74 1.54 3.58-0.08 6.53-3.89 5.86-7.42-0.67-3.52-4.61-5.98-8.11-5.2-2.08 0.47-3.85 1.88-5.14 3.57"/> <path class="st63" d="m443.08 435.58c0.37-0.32 0.73-0.71 0.8-1.27 0.19-1.48-1.51-2.93-2.84-3.96-3.79-2.92-7.02-7.07-9.02-11.57-0.74-1.67-1.32-3.41-2.3-4.99-0.97-1.58-2.47-3.02-3.98-3.22-1.06-0.14-1.93 0.34-2.75 0.83-1.92 1.16-3.89 2.58-4.36 5.11-0.65 3.52 1.77 7.77 4.15 11.33 5.39 8.01 14.44 12.79 20.3 7.74z"/> <path class="st61" d="m478.91 459.77c2.76 0.24 5.82-0.91 7.03-3.4s-0.37-6.13-3.14-6.3c-1.91-0.11-3.54 1.28-4.87 2.65-1.35 1.4-2.71 3.11-2.55 5.05s2.8 3.51 4.12 2.08"/> <path class="st64" d="m670.55 801.64c19.47-18.67 34.08-41.77 44.6-66.5 10.85-25.52 15.18-53.66 23.98-80.01 3.7-11.1 7.41-22.21 12.05-32.95 9.69-22.44 23.27-42.87 37.56-62.59 12.53-17.3 27.66-34.44 37.48-53.46 6.65-12.87 11.31-25.95 12.61-40.49 2.26-25.37-5.47-48.48-19.02-69.56-2.35-3.66-5.35-6.84-8.35-10-6.84-7.2-13.91-14.48-22.75-19-16.5-8.43-45.59-9.17-63.35-5.67-16.29 3.2-30.97 10.68-43.7 21.23-17.73 14.68-39.77 31.64-60.44 41.62-21.11 10.19-44.97 12.65-66.72 21.11-26.2 10.18-51.42 18.36-78 27.18-29.04 9.63-55.42 24.55-77.58 45.8-78.23 75.01-80.84 199.24-5.82 277.47s199.22 80.84 277.45 5.82z"/> <path class="st65" d="m666.04 790.86c18.27-17.52 31.99-39.2 41.86-62.42 10.18-23.95 14.25-50.36 22.5-75.09 3.48-10.41 6.96-20.84 11.31-30.92 9.09-21.06 21.84-40.23 35.26-58.74 11.76-16.24 25.96-32.33 35.18-50.17 6.24-12.08 10.62-24.36 11.83-38 2.12-23.81-5.13-45.5-17.86-65.28-2.21-3.43-5.03-6.42-7.84-9.38-6.42-6.76-13.05-13.59-21.35-17.83-15.49-7.91-42.79-8.6-59.46-5.32-15.29 3.01-29.07 10.03-41.02 19.92-16.64 13.78-37.33 29.7-56.72 39.06-19.81 9.57-42.2 11.88-62.62 19.81-24.59 9.55-48.26 17.24-73.2 25.51-27.25 9.04-52.01 23.04-72.82 42.99-73.42 70.4-75.87 187-5.47 260.42s187 75.84 260.42 5.44z"/> <path class="st66" d="m598.63 700.35c-32.17 30.85-83.26 29.78-114.1-2.4-30.85-32.17-29.78-83.26 2.4-114.1 14.45-13.85 33.81-21.93 53.82-22.43 19.9-0.5 41.2 2.97 58.29 13.21 3.79 2.27 7.65 4.6 10.52 7.96 4.39 5.13 5.96 12.02 7.39 18.61 4 18.45 8.63 35.91 5.32 54.86-2.94 16.83-11.3 32.46-23.64 44.29z"/> <path class="st66" d="m599.59 700.37c-32.17 30.85-83.26 29.78-114.1-2.4-30.85-32.17-29.78-83.26 2.4-114.1 14.45-13.85 33.81-21.93 53.82-22.43 19.9-0.5 41.2 2.97 58.29 13.21 3.79 2.27 7.65 4.6 10.52 7.96 4.39 5.13 5.96 12.02 7.39 18.61 4 18.45 8.63 35.91 5.32 54.86-2.95 16.83-11.3 32.46-23.64 44.29z"/> <path class="st67" d="m546.34 575.32c-15.22 1.07-28.39 8.74-41 16.27-4.83 2.88-9.73 5.84-13.3 10.15-5.64 6.81-7.35 16.22-8.9 25.26-1.56 9.11-3.12 18.39-1.87 27.86 1.25 9.48 5.78 19.35 13.87 25.11 1.59 1.13 3.36 2.11 5.21 2.26 4.79 0.39 7.53-4.6 8.81-9.07 5.81-20.25 3.35-44.33 15.49-60.94 7.87-10.77 20.77-16.59 33.81-20.43 6.49-1.91 20.11-3.72 21.89-10.72-9.59-5.12-23.8-6.48-34.01-5.75z"/> <path class="st68" d="m733.09 408.81c-8.61 2.68-17.76 3.2-26.4 5.76-16.35 4.85-29.62 16.58-42.31 27.97"/> <path class="st68" d="m680.12 448.74c-6.61 6.33-13.21 12.67-19.82 19"/> <path class="st68" d="m445.8 618.57c0.63 8.84 2.28 17.61 4.9 26.07"/> <path class="st68" d="m435.32 648.44c1.74 5.07 3.84 10.01 6.28 14.79"/> <path class="st68" d="m397.72 747.72c23.42 39.73 67.95 61.84 111.76 76.25 11.26 3.71 23.54 7.05 34.77 3.24"/> </svg>